<?xml version="1.0" encoding="utf-8"?>
<!-- Generator: Adobe Illustrator 14.0.0, SVG Export Plug-In . SVG Version: 6.00 Build 43363)  -->
<!DOCTYPE svg PUBLIC "-//W3C//DTD SVG 1.1//EN" "http://www.w3.org/Graphics/SVG/1.1/DTD/svg11.dtd">
<svg version="1.1" xmlns="http://www.w3.org/2000/svg" xmlns:xlink="http://www.w3.org/1999/xlink" x="0px" y="0px" width="400px"
	 height="400px" viewBox="0 0 400 400" enable-background="new 0 0 400 400" xml:space="preserve">
<g id="Layer_2" display="none">
	<rect display="inline" fill="#000066" width="400" height="400"/>
</g>
<g id="Layer_1" display="none">
	<circle display="inline" fill="#FFFFFF" cx="99.969" cy="195.78" r="2.459"/>
	<circle display="inline" fill="#FFFFFF" cx="82.344" cy="348.308" r="2.459"/>
	<circle display="inline" fill="#FFFFFF" cx="49.235" cy="67.5" r="1.674"/>
	<circle display="inline" fill="#FFFFFF" cx="216.582" cy="101.831" r="1.049"/>
	<circle display="inline" fill="#FFFFFF" cx="102.296" cy="109.504" r="1.049"/>
	<circle display="inline" fill="#FFFFFF" cx="179.231" cy="143.803" r="1.674"/>
	<circle display="inline" fill="#FFFFFF" cx="36.99" cy="388.389" r="1.674"/>
	<circle display="inline" fill="#FFFFFF" cx="135.643" cy="71.89" r="2.459"/>
	<circle display="inline" fill="#FFFFFF" cx="192" cy="363.248" r="2.459"/>
	<circle display="inline" fill="#FFFFFF" cx="273.724" cy="28.032" r="1.048"/>
	<circle display="inline" fill="#FFFFFF" cx="156.541" cy="158.821" r="1.049"/>
	<circle display="inline" fill="#FFFFFF" cx="21.683" cy="145.478" r="1.049"/>
	<circle display="inline" fill="#FFFFFF" cx="62.528" cy="15.654" r="1.049"/>
	<circle display="inline" fill="#FFFFFF" cx="6.152" cy="29.081" r="1.049"/>
	<circle display="inline" fill="#FFFFFF" cx="74.745" cy="252.29" r="1.049"/>
	<circle display="inline" fill="#FFFFFF" cx="322.704" cy="326.461" r="2.459"/>
	<circle display="inline" fill="#FFFFFF" cx="240.553" cy="220.175" r="2.459"/>
	<circle display="inline" fill="#FFFFFF" cx="277.471" cy="126.748" r="2.459"/>
	<circle display="inline" fill="#FFFFFF" cx="397.541" cy="162.328" r="2.459"/>
	<circle display="inline" fill="#FFFFFF" cx="377.518" cy="57.857" r="1.674"/>
	<circle display="inline" fill="#FFFFFF" cx="379.193" cy="361.573" r="1.674"/>
	<circle display="inline" fill="#FFFFFF" cx="312.53" cy="16.703" r="2.459"/>
	<circle display="inline" fill="#FFFFFF" cx="247.93" cy="390.063" r="1.674"/>
	<circle display="inline" fill="#FFFFFF" cx="201.5" cy="240.971" r="1.049"/>
	<circle display="inline" fill="#FFFFFF" cx="357.398" cy="110.552" r="1.048"/>
	<circle display="inline" fill="#FFFFFF" cx="260.459" cy="298.772" r="1.049"/>
	<circle display="inline" fill="#FFFFFF" cx="9.541" cy="299.821" r="1.049"/>
	<circle display="inline" fill="#FFFFFF" cx="350.398" cy="205.552" r="1.048"/>
</g>
<g id="Layer_3">
	<circle fill="#FFFFFF" cx="3.432" cy="15.236" r="2.459"/>
	<circle fill="#FFFFFF" cx="12.867" cy="317.064" r="1.674"/>
	<circle fill="#FFFFFF" cx="96.173" cy="4.796" r="1.674"/>
	<circle fill="#FFFFFF" cx="233.261" cy="149.54" r="2.459"/>
	<circle fill="#FFFFFF" cx="136.575" cy="193.368" r="1.049"/>
	<circle fill="#FFFFFF" cx="194.26" cy="313.042" r="1.048"/>
	<circle fill="#FFFFFF" cx="311.798" cy="243.206" r="1.674"/>
	<circle fill="#FFFFFF" cx="52.949" cy="203.409" r="1.674"/>
	<circle fill="#FFFFFF" cx="162.5" cy="85.408" r="1.674"/>
	<circle fill="#FFFFFF" cx="1.758" cy="180.08" r="1.674"/>
	<circle fill="#FFFFFF" cx="386.839" cy="17.287" r="1.049"/>
	<circle fill="#FFFFFF" cx="191.071" cy="46.238" r="1.049"/>
	<circle fill="#FFFFFF" cx="247.194" cy="77.928" r="1.049"/>
	<circle fill="#FFFFFF" cx="395.99" cy="191.431" r="1.049"/>
	<circle fill="#FFFFFF" cx="21.432" cy="60.236" r="2.459"/>
	<circle fill="#FFFFFF" cx="129.512" cy="315.391" r="1.674"/>
	<circle fill="#FFFFFF" cx="114.173" cy="49.796" r="1.674"/>
	<circle fill="#FFFFFF" cx="169.5" cy="288.206" r="2.459"/>
	<circle fill="#FFFFFF" cx="154.575" cy="238.368" r="1.049"/>
	<circle fill="#FFFFFF" cx="346.798" cy="288.206" r="1.674"/>
	<circle fill="#FFFFFF" cx="301.643" cy="360.552" r="1.674"/>
	<circle fill="#FFFFFF" cx="72.837" cy="147.755" r="1.674"/>
	<circle fill="#FFFFFF" cx="272.705" cy="30.306" r="1.674"/>
	<circle fill="#FFFFFF" cx="398.839" cy="92.287" r="1.049"/>
	<circle fill="#FFFFFF" cx="259.438" cy="210.524" r="1.049"/>
	<circle fill="#FFFFFF" cx="310.063" cy="171.879" r="1.049"/>
	<circle fill="#FFFFFF" cx="329.847" cy="390.993" r="1.049"/>
	<circle fill="#FFFFFF" cx="98.01" cy="378.584" r="1.048"/>
</g>
<g id="Layer_4" display="none">
	<circle display="inline" fill="#FFFFFF" cx="140.887" cy="4.459" r="2.459"/>
	<circle display="inline" fill="#FFFFFF" cx="59.623" cy="265.654" r="2.459"/>
	<circle display="inline" fill="#FFFFFF" cx="6.602" cy="106.072" r="2.459"/>
	<circle display="inline" fill="#FFFFFF" cx="187.5" cy="194.338" r="2.459"/>
	<circle display="inline" fill="#FFFFFF" cx="92.092" cy="385.645" r="2.459"/>
	<circle display="inline" fill="#FFFFFF" cx="264.012" cy="87.404" r="2.459"/>
	<circle display="inline" fill="#FFFFFF" cx="351.684" cy="33.154" r="2.459"/>
	<circle display="inline" fill="#FFFFFF" cx="384.408" cy="112.407" r="2.459"/>
	<circle display="inline" fill="#FFFFFF" cx="226.786" cy="319.317" r="2.459"/>
	<circle display="inline" fill="#FFFFFF" cx="339.306" cy="367.552" r="2.459"/>
	<circle display="inline" fill="#FFFFFF" cx="116.581" cy="114.383" r="1.674"/>
	<circle display="inline" fill="#FFFFFF" cx="278.512" cy="233.422" r="1.674"/>
</g>
</svg>
