<?xml version="1.0" encoding="utf-8"?>
<!-- Generator: Adobe Illustrator 14.0.0, SVG Export Plug-In . SVG Version: 6.00 Build 43363)  -->
<!DOCTYPE svg PUBLIC "-//W3C//DTD SVG 1.1//EN" "http://www.w3.org/Graphics/SVG/1.1/DTD/svg11.dtd">
<svg version="1.1" xmlns="http://www.w3.org/2000/svg" xmlns:xlink="http://www.w3.org/1999/xlink" x="0px" y="0px"
	 width="91.042px" height="480px" viewBox="0 0 91.042 480" enable-background="new 0 0 91.042 480" xml:space="preserve">
<g id="Layer_1" display="none">
	<rect display="inline" fill="#000066" width="91.042" height="480"/>
</g>
<g id="Layer_2">
	<circle fill="#FFFFFF" cx="3.5" cy="458.13" r="2.459"/>
	<circle fill="#FFFFFF" cx="22.754" cy="47.982" r="2.459"/>
	<circle fill="#FFFFFF" cx="25.213" cy="116.326" r="2.459"/>
	<circle fill="#FFFFFF" cx="83.664" cy="455.671" r="2.459"/>
	<circle fill="#FFFFFF" cx="19" cy="160.522" r="2.459"/>
	<circle fill="#FFFFFF" cx="10.869" cy="199.933" r="2.459"/>
	<circle fill="#FFFFFF" cx="20.295" cy="400.753" r="2.459"/>
	<circle fill="#FFFFFF" cx="47.754" cy="282.982" r="2.459"/>
	<circle fill="#FFFFFF" cx="22.754" cy="251.982" r="2.459"/>
	<circle fill="#FFFFFF" cx="25.213" cy="320.326" r="2.459"/>
	<circle fill="#FFFFFF" cx="66.836" cy="322.785" r="2.459"/>
	<circle fill="#FFFFFF" cx="35.254" cy="354.333" r="2.459"/>
	<circle fill="#FFFFFF" cx="49.213" cy="435.326" r="2.459"/>
	<circle fill="#FFFFFF" cx="88.451" cy="389.791" r="2.459"/>
	<circle fill="#FFFFFF" cx="64.582" cy="55.654" r="2.459"/>
	<circle fill="#FFFFFF" cx="34.089" cy="8.5" r="1.674"/>
	<circle fill="#FFFFFF" cx="57.105" cy="3.202" r="1.049"/>
	<circle fill="#FFFFFF" cx="22.105" cy="30.178" r="1.049"/>
	<circle fill="#FFFFFF" cx="55.731" cy="84.803" r="1.674"/>
	<circle fill="#FFFFFF" cx="47.754" cy="146.113" r="1.674"/>
	<circle fill="#FFFFFF" cx="33.382" cy="219" r="1.674"/>
	<circle fill="#FFFFFF" cx="2.674" cy="20.455" r="1.674"/>
	<circle fill="#FFFFFF" cx="75.731" cy="301.659" r="1.674"/>
	<circle fill="#FFFFFF" cx="69.731" cy="474.659" r="1.674"/>
	<circle fill="#FFFFFF" cx="17.326" cy="298.311" r="1.674"/>
	<circle fill="#FFFFFF" cx="81.123" cy="262.229" r="2.459"/>
	<circle fill="#FFFFFF" cx="83.302" cy="90.54" r="2.459"/>
	<circle fill="#FFFFFF" cx="63.582" cy="139.655" r="2.459"/>
	<circle fill="#FFFFFF" cx="66.041" cy="207.999" r="2.459"/>
	<circle fill="#FFFFFF" cx="88.582" cy="162.982" r="2.459"/>
	<circle fill="#FFFFFF" cx="58.254" cy="374.684" r="1.674"/>
	<circle fill="#FFFFFF" cx="3.5" cy="361.658" r="1.674"/>
	<circle fill="#FFFFFF" cx="58.254" cy="414" r="1.674"/>
	<circle fill="#FFFFFF" cx="35.057" cy="477.325" r="1.674"/>
	<circle fill="#FFFFFF" cx="81.891" cy="15.75" r="1.049"/>
	<circle fill="#FFFFFF" cx="33.041" cy="99.821" r="1.049"/>
	<circle fill="#FFFFFF" cx="15.652" cy="82.081" r="1.049"/>
	<circle fill="#FFFFFF" cx="13.075" cy="134.368" r="1.049"/>
	<circle fill="#FFFFFF" cx="86.302" cy="198.474" r="1.049"/>
	<circle fill="#FFFFFF" cx="34.008" cy="184.833" r="1.049"/>
	<circle fill="#FFFFFF" cx="58.254" cy="251.982" r="1.049"/>
	<circle fill="#FFFFFF" cx="1.049" cy="258.721" r="1.049"/>
	<circle fill="#FFFFFF" cx="50.213" cy="310.784" r="1.049"/>
	<circle fill="#FFFFFF" cx="89.5" cy="354.332" r="1.049"/>
	<circle fill="#FFFFFF" cx="11.167" cy="433.916" r="1.049"/>
	<circle fill="#FFFFFF" cx="31.708" cy="386.283" r="1.049"/>
	<circle fill="#FFFFFF" cx="76.5" cy="420.5" r="1.049"/>
	<circle fill="#FFFFFF" cx="56.58" cy="455.671" r="1.049"/>
</g>
</svg>
